<?xml version="1.0" ?>
<!-- Uploaded to: SVG Repo, www.svgrepo.com, Generator: SVG Repo Mixer Tools -->
<svg fill="#000000" width="800px" height="800px" viewBox="0 0 64 64" id="Layer_1_1_" version="1.1" xml:space="preserve" xmlns="http://www.w3.org/2000/svg" xmlns:xlink="http://www.w3.org/1999/xlink">
<g>
<path d="M59.291,19H38.414l-2-2h-8.828l-2,2H4.709C2.664,19,1,20.664,1,22.709c0,0.265,0.028,0.53,0.084,0.788l3.227,14.839   C5.402,43.356,9.923,47,15.06,47H48.94c5.137,0,9.657-3.644,10.749-8.663l3.227-14.841C62.972,23.239,63,22.974,63,22.709   C63,20.664,61.336,19,59.291,19z M60.961,23.072l-3.227,14.84C56.842,42.019,53.144,45,48.94,45H15.06   c-4.203,0-7.901-2.981-8.794-7.089L3.039,23.072C3.013,22.954,3,22.832,3,22.709C3,21.767,3.767,21,4.709,21h21.705l2-2h7.172l2,2   h21.705C60.233,21,61,21.767,61,22.709C61,22.832,60.987,22.954,60.961,23.072z"/>
<path d="M33.586,25h-3.172l-2-2H5.069l3.15,14.486C8.914,40.682,11.79,43,15.06,43H48.94c3.269,0,6.146-2.318,6.841-5.513   L58.931,23H35.586L33.586,25z M51,35.007h-2V31h2V35.007z M53,31h2.144l-0.871,4.007H53V31z M51,40.531   c-0.618,0.284-1.292,0.455-2,0.464v-3.988h2V40.531z M27,29h-2v-4h2V29z M43,35.007h-2V31h2V35.007z M45,31h2v4.007h-2V31z    M39,35.007h-2V31h2V35.007z M35,35.007h-2V31h2V35.007z M31,35.007h-2V31h2V35.007z M27,35.007h-2V31h2V35.007z M21,31h2v4.007h-2   V31z M19,35.007h-2V31h2V35.007z M23,29h-2v-4h2V29z M19,29h-2v-4h2V29z M15,29h-2v-4h2V29z M15,31v4.007h-2V31H15z M13,37.007h2   v3.988c-0.708-0.009-1.382-0.18-2-0.464V37.007z M17,37.007h2V41h-2V37.007z M21,37.007h2V41h-2V37.007z M25,37.007h2V41h-2V37.007   z M29,37.007h2V41h-2V37.007z M33,37.007h2V41h-2V37.007z M37,37.007h2V41h-2V37.007z M41,37.007h2V41h-2V37.007z M45,37.007h2V41   h-2V37.007z M49,29v-4h2v4H49z M47,29h-2v-4h2V29z M43,29h-2v-4h2V29z M39,29h-2v-4h2V29z M34.414,27L35,26.414V29h-2v-2H34.414z    M31,27v2h-2v-2.586L29.586,27H31z M11,25v4H8.422l-0.87-4H11z M8.857,31H11v7.881c-0.385-0.538-0.679-1.147-0.825-1.82L8.857,31z    M53,38.882v-1.875h0.838l-0.012,0.055C53.68,37.735,53.385,38.344,53,38.882z M55.579,29H53v-4h3.448L55.579,29z"/>
</g>
</svg>