<?xml version="1.0" encoding="iso-8859-1"?>
<!-- Uploaded to: SVG Repo, www.svgrepo.com, Generator: SVG Repo Mixer Tools -->
<svg height="800px" width="800px" version="1.1" id="Layer_1" xmlns="http://www.w3.org/2000/svg" xmlns:xlink="http://www.w3.org/1999/xlink" 
	 viewBox="0 0 512 512" xml:space="preserve">
<g>
	<path style="fill:#F15A24;" d="M340.175,116.023c0,46.489-84.176,186.649-84.176,186.649s-84.176-140.161-84.176-186.649
		s37.687-84.176,84.176-84.176S340.175,69.535,340.175,116.023z"/>
	<path style="fill:#F15A24;" d="M52.27,323.099C92.53,299.855,256,302.672,256,302.672s-79.295,142.978-119.555,166.222
		s-91.741,9.45-114.985-30.811S12.009,346.344,52.27,323.099z"/>
	<path style="fill:#F15A24;" d="M375.555,468.895C335.295,445.651,256,302.672,256,302.672s163.47-2.817,203.731,20.426
		c40.26,23.244,54.055,74.725,30.811,114.985C467.296,478.344,415.816,492.14,375.555,468.895z"/>
</g>
<circle style="fill:#FBB03B;" cx="256.002" cy="302.67" r="67.164"/>
<path d="M464.831,314.265c-19.175-11.071-63.581-18.041-132.025-20.741c-2.549-21.532-13.957-40.388-30.489-52.784
	c31.89-60.632,48.06-102.577,48.06-124.718c0-52.039-42.336-94.376-94.376-94.376s-94.376,42.336-94.376,94.376
	c0,22.141,16.17,64.088,48.06,124.718c-16.532,12.396-27.94,31.251-30.489,52.784c-68.444,2.699-112.85,9.669-132.025,20.741
	c-45.067,26.018-60.563,83.852-34.544,128.919c17.461,30.243,49.248,47.17,81.891,47.169c15.999,0,32.205-4.067,47.028-12.625
	c19.174-11.07,47.411-46.04,83.969-103.963c9.361,4.029,19.666,6.271,30.486,6.271c10.821,0,21.125-2.241,30.486-6.271
	c36.558,57.923,64.795,92.893,83.969,103.963c14.826,8.56,31.027,12.625,47.028,12.625c32.64,0,64.431-16.929,81.891-47.169
	C525.395,398.117,509.898,340.285,464.831,314.265z M182.025,116.023c0-40.79,33.185-73.975,73.975-73.975
	s73.975,33.185,73.975,73.975c0,10.695-6.027,39.698-45.464,114.752c-8.83-3.514-18.444-5.467-28.51-5.467
	c-10.067,0-19.681,1.953-28.51,5.467C188.053,155.721,182.025,126.718,182.025,116.023z M131.344,460.061
	c-11.621,6.71-24.32,9.897-36.863,9.897c-25.584-0.002-50.503-13.269-64.189-36.973c-20.395-35.325-8.248-80.656,27.076-101.051
	c9.262-5.348,37.391-14.63,122.094-18.004c2.916,19.919,13.454,37.383,28.544,49.356
	C162.717,434.988,140.608,454.713,131.344,460.061z M199.036,302.672c0-31.409,25.554-56.964,56.964-56.964
	s56.964,25.554,56.964,56.964S287.41,359.636,256,359.636S199.036,334.083,199.036,302.672z M481.707,432.985
	c-20.396,35.324-65.726,47.471-101.051,27.076c-9.263-5.348-31.373-25.073-76.663-96.776c15.09-11.973,25.628-29.438,28.544-49.356
	c84.702,3.374,112.831,12.657,122.094,18.004C489.955,352.327,502.102,397.659,481.707,432.985z"/>
<path d="M231.535,302.672c0-2.896,0.498-5.726,1.481-8.41c1.936-5.29-0.782-11.148-6.072-13.085
	c-5.29-1.936-11.148,0.782-13.085,6.072c-1.808,4.937-2.724,10.126-2.724,15.423c0,8.462,2.371,16.709,6.857,23.847
	c1.938,3.084,5.254,4.775,8.646,4.775c1.854,0,3.732-0.506,5.419-1.566c4.77-2.997,6.207-9.294,3.209-14.064
	C232.825,311.782,231.535,307.29,231.535,302.672z"/>
<path d="M256,257.806c-4.535,0-9.015,0.677-13.316,2.013c-5.38,1.671-8.388,7.386-6.717,12.767c1.358,4.373,5.388,7.178,9.738,7.178
	c1.002,0,2.021-0.149,3.028-0.461c2.339-0.726,4.784-1.095,7.267-1.095c5.634,0,10.201-4.567,10.201-10.201
	C266.201,262.374,261.634,257.806,256,257.806z"/>
</svg>