<?xml version="1.0" encoding="UTF-8" standalone="no"?>
<!-- Created with Inkscape (http://www.inkscape.org/) -->

<svg
   version="1.1"
   id="svg288"
   width="1143.4667"
   height="1143.4667"
   viewBox="0 0 1143.4667 1143.4667"
   sodipodi:docname="shafts.svg"
   inkscape:version="1.2.2 (b0a8486, 2022-12-01)"
   xmlns:inkscape="http://www.inkscape.org/namespaces/inkscape"
   xmlns:sodipodi="http://sodipodi.sourceforge.net/DTD/sodipodi-0.dtd"
   xmlns="http://www.w3.org/2000/svg"
   xmlns:svg="http://www.w3.org/2000/svg">
  <defs
     id="defs292" />
  <sodipodi:namedview
     id="namedview290"
     pagecolor="#ffffff"
     bordercolor="#000000"
     borderopacity="0.25"
     inkscape:showpageshadow="2"
     inkscape:pageopacity="0.0"
     inkscape:pagecheckerboard="0"
     inkscape:deskcolor="#d1d1d1"
     showgrid="false"
     inkscape:zoom="0.20638992"
     inkscape:cx="-142.93333"
     inkscape:cy="576.57854"
     inkscape:window-width="1309"
     inkscape:window-height="662"
     inkscape:window-x="0"
     inkscape:window-y="25"
     inkscape:window-maximized="0"
     inkscape:current-layer="g294" />
  <g
     inkscape:groupmode="layer"
     inkscape:label="Image"
     id="g294">
    <path
       style="fill:#000000;stroke-width:1.06667"
       d="m 168.43395,811.23123 c -11.3732,-2.76575 -23.2686,-12.02237 -28.185,-21.93255 -5.6925,-11.47471 -5.8202,-26.4276 -0.321,-37.59804 6.619,-13.44497 7.8759,-14.26588 65.306,-42.65128 28.4533,-14.06336 55.496,-27.29933 60.0949,-29.41326 8.0147,-3.68403 8.3364,-3.96971 7.7533,-6.88523 l -0.6083,-3.04172 37.58,-18.54547 c 35.8369,-17.68525 37.6479,-18.45058 39.0435,-16.49976 0.8049,1.12514 1.8479,2.0457 2.3179,2.0457 0.8799,0 303.9109,-148.93669 304.76129,-149.78706 0.26109,-0.26111 -0.32085,-2.86998 -1.29321,-5.7975 -2.46281,-7.41479 -2.30381,-19.67356 0.35322,-27.23326 2.50202,-7.11871 8.18971,-15.22029 13.56222,-19.31809 2.11255,-1.61133 30.43468,-16.05664 62.93808,-32.1007 32.50338,-16.04407 59.09707,-29.38201 59.09707,-29.63987 0,-0.25785 -6.48,-13.88814 -14.40001,-30.28955 -15.30371,-31.69222 -16.35156,-35.11578 -12.52772,-40.93079 1.02359,-1.55657 5.35207,-6.94114 9.61885,-11.96572 7.08136,-8.33899 8.65691,-9.58036 18.06923,-14.23652 l 10.31142,-5.10095 16.52762,0.23493 c 11.78961,0.16759 16.89479,0.62627 17.80843,1.6 1.7645,1.88057 126.78948,256.4581 128.22748,261.09841 4.3189,13.93713 0.5752,30.15529 -9.4784,41.06218 -8.4861,9.20632 -18.46077,13.51376 -31.3569,13.54107 -9.94608,0.021 -17.4226,-2.40772 -25.33505,-8.23018 -7.25977,-5.34218 -10.47063,-10.27412 -21.33634,-32.77307 -5.31239,-11 -10.10116,-20 -10.64173,-20 -0.54057,0 -27.36917,12.95886 -59.6191,28.79746 -32.24994,15.83861 -60.78389,29.33825 -63.40879,29.99921 -8.04099,2.02473 -21.36567,0.72313 -28.19233,-2.75395 -8.24629,-4.20014 -13.25986,-8.40824 -17.12581,-14.37441 l -3.33375,-5.14486 -28.97022,14.15611 c -15.93362,7.78585 -84.65022,41.58223 -152.70356,75.10305 -99.37712,48.94988 -123.71909,61.33808 -123.66099,62.93399 0.057,1.56581 -2.2043,2.81988 -10.6667,5.91552 -5.9064,2.16067 -16.499,7.20386 -23.539,11.20709 -7.04,4.00322 -16.3482,9.04746 -20.6849,11.20943 -4.3367,2.16196 -10.4608,5.64114 -13.6091,7.73151 -5.3915,3.57973 -5.8384,3.69733 -7.6885,2.02301 -1.858,-1.68149 -5.1276,-0.21742 -60.4233,27.05666 -32.1524,15.85888 -61.2136,29.54815 -64.5805,30.4206 -7.1891,1.86288 -12.3472,1.89115 -19.6803,0.10786 z"
       id="path352" />
  </g>
</svg>
